<?xml version="1.0" encoding="UTF-8"?>
<svg version="1.1" xmlns="http://www.w3.org/2000/svg" width="400" height="400">
<path d="M0 0 C132 0 264 0 400 0 C400 132 400 264 400 400 C268 400 136 400 0 400 C0 268 0 136 0 0 Z " fill="#FEFEFE" transform="translate(0,0)"/>
<path d="M0 0 C0.90008939 -0.00453111 1.80017877 -0.00906223 2.72754359 -0.01373065 C5.75605639 -0.02643255 8.78439069 -0.02475054 11.81292725 -0.02310181 C13.97932671 -0.02908352 16.14572403 -0.03588824 18.31211853 -0.04345703 C24.20686234 -0.06116252 30.10154813 -0.06581438 35.99631596 -0.0670886 C40.91427754 -0.0689853 45.83222554 -0.07634037 50.75018191 -0.08343279 C62.35329801 -0.09973234 73.95638305 -0.10460039 85.55950928 -0.10317993 C97.53318083 -0.10197871 109.50661429 -0.1230731 121.48024964 -0.15466726 C131.75465311 -0.18081283 142.02899764 -0.19154792 152.30343413 -0.19026911 C158.44222453 -0.18975889 164.58085482 -0.19547523 170.71961212 -0.21662521 C176.49475319 -0.235978 182.26958098 -0.23615211 188.04473305 -0.22159195 C190.16392537 -0.21949895 192.28313714 -0.22423386 194.40229607 -0.23631287 C197.2968052 -0.25174189 200.1902311 -0.24247231 203.0847168 -0.22705078 C204.34091178 -0.24248147 204.34091178 -0.24248147 205.62248445 -0.25822389 C211.30273448 -0.19140788 214.63512951 0.97080084 219.29632568 4.26742554 C221.92562377 8.21137266 221.58636528 11.58952938 221.57720947 16.16764832 C221.58315172 17.08886103 221.58909396 18.01007374 221.59521627 18.95920199 C221.61261827 22.05913126 221.61560906 25.15890631 221.61859131 28.25888062 C221.62784566 30.47616406 221.63789471 32.69344431 221.64868164 34.91072083 C221.6749523 40.94381025 221.68782382 46.97685514 221.69670296 53.00999284 C221.70256049 56.77718791 221.71076933 60.54437075 221.7197113 64.31155968 C221.74393126 74.74208997 221.76469484 85.17261164 221.77146149 95.60316944 C221.77212019 96.60451755 221.77212019 96.60451755 221.77279219 97.62609492 C221.77344702 98.6298367 221.77344702 98.6298367 221.77411509 99.6538561 C221.77500202 101.00982782 221.77589514 102.36579953 221.77679443 103.72177124 C221.77723729 104.39437981 221.77768015 105.06698838 221.77813643 105.75997903 C221.78603231 116.65842212 221.82094 127.55659773 221.86751348 138.4549375 C221.9149452 149.64443992 221.93934944 160.83384481 221.94219732 172.02345771 C221.94429601 178.30594942 221.95616566 184.58806394 221.99183655 190.87046242 C222.02473418 196.77948714 222.02914083 202.68784985 222.01155853 208.59693336 C222.01001434 210.76654836 222.01874887 212.93619847 222.03847504 215.10572433 C222.06381991 218.06669322 222.05221816 221.02530055 222.03131104 223.98625183 C222.05548025 225.27599819 222.05548025 225.27599819 222.08013773 226.59180003 C222.00701986 231.01527824 221.55876957 233.52843883 218.4378891 236.78499889 C213.98686204 240.7704655 209.30968334 240.41371257 203.61715698 240.40786743 C202.27103154 240.41232412 202.27103154 240.41232412 200.89771163 240.41687083 C197.87839265 240.42557063 194.85911325 240.42706716 191.83978271 240.42855835 C189.67999181 240.43318557 187.52020173 240.4382101 185.3604126 240.44360352 C179.48440918 240.45673764 173.60841718 240.4631743 167.73240137 240.46761417 C164.06371436 240.47054289 160.39503049 240.47464729 156.72634506 240.47911835 C145.25473073 240.49279512 133.78312355 240.50246125 122.31150162 240.50632024 C109.05613789 240.51080344 95.80087715 240.52836281 82.54554474 240.55732083 C72.30769676 240.57891279 62.06987781 240.58902317 51.83200729 240.59036136 C45.7134257 240.59141105 39.59494089 240.59735381 33.47638321 240.61518097 C27.72263767 240.63161895 21.96906212 240.63383794 16.21530151 240.62504196 C14.10171937 240.62426933 11.98812824 240.62864393 9.87456894 240.63850021 C6.99266221 240.6511531 4.11136366 240.64537917 1.22946167 240.63491821 C-0.02963542 240.64700282 -0.02963542 240.64700282 -1.31416881 240.65933156 C-5.96391582 240.61976668 -8.92242853 240.24702764 -12.70367432 237.26742554 C-13.45618438 236.73173667 -14.20869444 236.1960478 -14.98400784 235.64412594 C-17.61603334 232.006481 -17.26014673 228.62512083 -17.21833801 224.24021912 C-17.22528354 223.31744641 -17.23222907 222.39467371 -17.23938507 221.4439382 C-17.25771587 218.34457327 -17.24737373 215.24596853 -17.23712158 212.14657593 C-17.24417697 209.92751999 -17.25292038 207.70846887 -17.26322937 205.48942566 C-17.28577575 199.45638284 -17.28277128 193.4236017 -17.2739079 187.39053273 C-17.26880621 182.3579954 -17.27608393 177.3255076 -17.28337997 172.29297537 C-17.3013692 159.74374352 -17.29495129 147.19463798 -17.27721017 134.64541971 C-17.26251452 123.74638449 -17.27713879 112.84762498 -17.30598033 101.94862527 C-17.33537322 90.75794306 -17.34583857 79.56736049 -17.33679813 68.37663454 C-17.33186187 62.0937071 -17.33412252 55.810994 -17.35458565 49.52809334 C-17.37290373 43.6207207 -17.36703101 37.71386147 -17.34238625 31.80651665 C-17.33736614 29.63650139 -17.34089903 27.46644728 -17.3535347 25.29646301 C-17.36940302 22.33758562 -17.35457259 19.38041172 -17.3318634 16.4216156 C-17.349617 15.12852316 -17.349617 15.12852316 -17.36772925 13.80930763 C-17.30031467 9.49626459 -17.1288773 7.80027346 -14.3519125 4.32028866 C-9.33899422 0.43437117 -6.18354644 -0.02262762 0 0 Z " fill="#0000FC" transform="translate(97.70367431640625,79.73257446289063)"/>
<path d="M0 0 C0.90008939 -0.00453111 1.80017877 -0.00906223 2.72754359 -0.01373065 C5.75605639 -0.02643255 8.78439069 -0.02475054 11.81292725 -0.02310181 C13.97932671 -0.02908352 16.14572403 -0.03588824 18.31211853 -0.04345703 C24.20686234 -0.06116252 30.10154813 -0.06581438 35.99631596 -0.0670886 C40.91427754 -0.0689853 45.83222554 -0.07634037 50.75018191 -0.08343279 C62.35329801 -0.09973234 73.95638305 -0.10460039 85.55950928 -0.10317993 C97.53318083 -0.10197871 109.50661429 -0.1230731 121.48024964 -0.15466726 C131.75465311 -0.18081283 142.02899764 -0.19154792 152.30343413 -0.19026911 C158.44222453 -0.18975889 164.58085482 -0.19547523 170.71961212 -0.21662521 C176.49475319 -0.235978 182.26958098 -0.23615211 188.04473305 -0.22159195 C190.16392537 -0.21949895 192.28313714 -0.22423386 194.40229607 -0.23631287 C197.2968052 -0.25174189 200.1902311 -0.24247231 203.0847168 -0.22705078 C204.34091178 -0.24248147 204.34091178 -0.24248147 205.62248445 -0.25822389 C211.28229641 -0.19164829 214.67705605 0.93209003 219.29632568 4.26742554 C219.62632568 5.25742554 219.95632568 6.24742554 220.29632568 7.26742554 C218.35882568 6.89242554 218.35882568 6.89242554 216.29632568 6.26742554 C215.96632568 5.60742554 215.63632568 4.94742554 215.29632568 4.26742554 C210.32855744 3.04404404 205.34362056 3.11516376 200.26071167 3.10920715 C199.36128715 3.10426918 198.46186264 3.0993312 197.53518283 3.09424359 C194.52734294 3.07890969 191.51952432 3.0705191 188.51165771 3.06210327 C186.35316278 3.05252152 184.19466971 3.04251126 182.03617859 3.03210449 C176.1792946 3.00508159 170.32240258 2.98405784 164.46549082 2.96410251 C158.34356632 2.94222685 152.22166653 2.91484588 146.09976196 2.88804626 C134.5083292 2.83814076 122.91688271 2.79319396 111.32542312 2.7500239 C98.12842079 2.70063324 84.93144324 2.64572188 71.73446488 2.59034431 C44.58844161 2.47655714 17.44239456 2.36971097 -9.70367432 2.26742554 C-9.37367432 4.24742554 -9.04367432 6.22742554 -8.70367432 8.26742554 C-9.69367432 8.59742554 -10.68367432 8.92742554 -11.70367432 9.26742554 C-11.70367432 8.60742554 -11.70367432 7.94742554 -11.70367432 7.26742554 C-12.69367432 7.76242554 -12.69367432 7.76242554 -13.70367432 8.26742554 C-13.72701971 36.47435647 -13.74466158 64.68128596 -13.75548649 92.8882246 C-13.76064595 105.98476166 -13.76768201 119.08129272 -13.77911377 132.17782593 C-13.78907126 143.59082792 -13.79553029 155.00382557 -13.79776281 166.41683179 C-13.7990681 172.46164666 -13.80214253 178.5064491 -13.80940437 184.55125999 C-13.81618135 190.23843593 -13.81828783 195.9255943 -13.816782 201.6127739 C-13.81705757 203.70216149 -13.81905275 205.79154966 -13.82287979 207.88093376 C-13.82784319 210.72997548 -13.82666276 213.57895056 -13.82392883 216.42799377 C-13.82684167 217.25776535 -13.82975452 218.08753692 -13.83275563 218.94245309 C-13.83475515 224.67257507 -13.83475515 224.67257507 -12.70367432 230.26742554 C-10.73609158 231.62762705 -10.73609158 231.62762705 -8.70367432 232.26742554 C-7.91992432 231.44242554 -7.13617432 230.61742554 -6.32867432 229.76742554 C-3.70367432 227.26742554 -3.70367432 227.26742554 -1.70367432 227.26742554 C-2.22635898 230.03018731 -2.81237018 232.59351313 -3.70367432 235.26742554 C-1.10194231 237.86915755 0.69040362 237.50701788 4.23405421 237.52558815 C5.07256431 237.51976247 5.9110744 237.51393679 6.7749939 237.50793457 C7.66283361 237.50964342 8.55067332 237.51135227 9.46541727 237.5131129 C12.45812487 237.51642276 15.45061119 237.50537958 18.44329834 237.49447632 C20.58149714 237.49391253 22.71969632 237.49422813 24.8578949 237.49536133 C30.67787243 237.4959371 36.49776816 237.48414664 42.31772661 237.47021341 C48.39427817 237.45774327 54.47083142 237.4565385 60.5473938 237.4541626 C72.06107633 237.44793687 83.57472104 237.43151131 95.08838689 237.41146362 C108.19337819 237.38913855 121.29837125 237.37811974 134.40337682 237.36807275 C161.3677141 237.34714601 188.33201778 237.31194886 215.29632568 237.26742554 C214.30632568 234.79242554 214.30632568 234.79242554 213.29632568 232.26742554 C214.28632568 231.93742554 215.27632568 231.60742554 216.29632568 231.26742554 C217.28632568 232.58742554 218.27632568 233.90742554 219.29632568 235.26742554 C215.73283127 239.07667819 213.84554941 240.21371646 208.50532722 240.3988533 C206.87595469 240.40698949 205.24654897 240.40954051 203.61715698 240.40786743 C202.27103154 240.41232412 202.27103154 240.41232412 200.89771163 240.41687083 C197.87839265 240.42557063 194.85911325 240.42706716 191.83978271 240.42855835 C189.67999181 240.43318557 187.52020173 240.4382101 185.3604126 240.44360352 C179.48440918 240.45673764 173.60841718 240.4631743 167.73240137 240.46761417 C164.06371436 240.47054289 160.39503049 240.47464729 156.72634506 240.47911835 C145.25473073 240.49279512 133.78312355 240.50246125 122.31150162 240.50632024 C109.05613789 240.51080344 95.80087715 240.52836281 82.54554474 240.55732083 C72.30769676 240.57891279 62.06987781 240.58902317 51.83200729 240.59036136 C45.7134257 240.59141105 39.59494089 240.59735381 33.47638321 240.61518097 C27.72263767 240.63161895 21.96906212 240.63383794 16.21530151 240.62504196 C14.10171937 240.62426933 11.98812824 240.62864393 9.87456894 240.63850021 C6.99266221 240.6511531 4.11136366 240.64537917 1.22946167 240.63491821 C-0.02963542 240.64700282 -0.02963542 240.64700282 -1.31416881 240.65933156 C-5.96391582 240.61976668 -8.92242853 240.24702764 -12.70367432 237.26742554 C-13.45618438 236.73173667 -14.20869444 236.1960478 -14.98400784 235.64412594 C-17.61603334 232.006481 -17.26014673 228.62512083 -17.21833801 224.24021912 C-17.22528354 223.31744641 -17.23222907 222.39467371 -17.23938507 221.4439382 C-17.25771587 218.34457327 -17.24737373 215.24596853 -17.23712158 212.14657593 C-17.24417697 209.92751999 -17.25292038 207.70846887 -17.26322937 205.48942566 C-17.28577575 199.45638284 -17.28277128 193.4236017 -17.2739079 187.39053273 C-17.26880621 182.3579954 -17.27608393 177.3255076 -17.28337997 172.29297537 C-17.3013692 159.74374352 -17.29495129 147.19463798 -17.27721017 134.64541971 C-17.26251452 123.74638449 -17.27713879 112.84762498 -17.30598033 101.94862527 C-17.33537322 90.75794306 -17.34583857 79.56736049 -17.33679813 68.37663454 C-17.33186187 62.0937071 -17.33412252 55.810994 -17.35458565 49.52809334 C-17.37290373 43.6207207 -17.36703101 37.71386147 -17.34238625 31.80651665 C-17.33736614 29.63650139 -17.34089903 27.46644728 -17.3535347 25.29646301 C-17.36940302 22.33758562 -17.35457259 19.38041172 -17.3318634 16.4216156 C-17.349617 15.12852316 -17.349617 15.12852316 -17.36772925 13.80930763 C-17.30031467 9.49626459 -17.1288773 7.80027346 -14.3519125 4.32028866 C-9.33899422 0.43437117 -6.18354644 -0.02262762 0 0 Z " fill="#0504EA" transform="translate(97.70367431640625,79.73257446289063)"/>
<path d="M0 0 C0.66 0 1.32 0 2 0 C3.625 2 3.625 2 5 4 C1.43513883 7.81071366 -0.45098422 8.94747819 -5.79379177 9.12863445 C-7.42448037 9.13546441 -9.05519767 9.13670292 -10.68589783 9.13371277 C-11.58402036 9.13597833 -12.48214289 9.13824388 -13.40748125 9.14057809 C-16.4291378 9.14692873 -19.45074961 9.14608805 -22.47241211 9.14526367 C-24.63382526 9.14825448 -26.79523787 9.15165682 -28.95664978 9.15544128 C-34.83672132 9.16429295 -40.71677832 9.16661987 -46.59685588 9.16725707 C-51.50018359 9.16820521 -56.40350788 9.17188236 -61.30683428 9.17542917 C-72.87146874 9.18357798 -84.43609542 9.18601299 -96.00073242 9.18530273 C-107.94371708 9.18470166 -119.88665661 9.19525851 -131.82962984 9.2110464 C-142.07255769 9.2241061 -152.31547077 9.2294873 -162.55840689 9.22884732 C-168.68084489 9.2285919 -174.8032428 9.23146777 -180.92567253 9.24202538 C-186.68185095 9.2516801 -192.43795072 9.25180363 -198.19413185 9.24450874 C-200.30974314 9.24345966 -202.42535925 9.24584486 -204.54096222 9.2518692 C-207.4231079 9.25954638 -210.30497908 9.25497276 -213.18711853 9.24723816 C-214.45058488 9.2549535 -214.45058488 9.2549535 -215.7395758 9.26282471 C-222.73052036 9.22120459 -222.73052036 9.22120459 -226 7 C-226 6.67 -226 6.34 -226 6 C-151.09 6 -76.18 6 1 6 C0.01 3.525 0.01 3.525 -1 1 C-0.67 0.67 -0.34 0.34 0 0 Z " fill="#363BDB" transform="translate(312,311)"/>
<path d="M0 0 C0.90265266 -0.00623996 1.80530532 -0.01247993 2.73531109 -0.01890898 C5.75472109 -0.03484165 8.77332412 -0.02223344 11.79273987 -0.00964355 C13.95958425 -0.01506458 16.12642495 -0.02218712 18.29325867 -0.03088379 C24.17550906 -0.04912336 30.0574789 -0.04204654 35.93973422 -0.02936745 C42.09574564 -0.01924186 48.251733 -0.02863203 54.40774536 -0.03491211 C64.74689548 -0.04219033 75.08593132 -0.03259673 85.42506409 -0.0135498 C97.37664657 0.00821342 109.32795604 0.00117211 121.2795319 -0.02085543 C131.54127222 -0.03901124 141.80293039 -0.04156665 152.06468159 -0.03110075 C158.19334802 -0.02486612 164.32188618 -0.02402937 170.45054436 -0.0372467 C176.21344266 -0.04880688 181.9759893 -0.04077595 187.73884964 -0.01766968 C189.85319625 -0.0123833 191.96757248 -0.01389511 194.08190727 -0.02272034 C196.96971711 -0.03366209 199.85640231 -0.01992825 202.74414062 0 C203.99726607 -0.01338433 203.99726607 -0.01338433 205.27570719 -0.02703905 C210.9267305 0.04852589 214.3223389 1.17967001 218.93556213 4.50793457 C219.26556213 5.49793457 219.59556213 6.48793457 219.93556213 7.50793457 C217.99806213 7.13293457 217.99806213 7.13293457 215.93556213 6.50793457 C215.60556213 5.84793457 215.27556213 5.18793457 214.93556213 4.50793457 C209.97183238 3.28395798 204.99848072 3.36220763 199.9201355 3.36749268 C199.02282768 3.36452155 198.12551986 3.36155043 197.2010209 3.35848927 C194.20017161 3.34983094 191.19936236 3.3482965 188.19850159 3.34680176 C186.04487524 3.34217182 183.8912497 3.33714692 181.73762512 3.33175659 C175.89292438 3.31865369 170.0482351 3.31219257 164.20352197 3.30774593 C160.55409799 3.30481379 156.90467714 3.30070887 153.25525475 3.29624176 C141.84238777 3.28257679 130.42952795 3.27290337 119.01665336 3.26903987 C105.83035015 3.26455153 92.64415021 3.24696349 79.45787841 3.21803927 C69.26925769 3.19646325 59.08066613 3.18633789 48.89202279 3.18499875 C42.80373074 3.18394844 36.7155359 3.17799197 30.62726784 3.16017914 C24.90714024 3.14376738 19.18718368 3.14150922 13.46704102 3.15031815 C11.36390413 3.15109204 9.26075829 3.14669975 7.15764427 3.13685989 C4.29490176 3.12424727 1.43277504 3.12995843 -1.42996216 3.14044189 C-2.68889181 3.12835729 -2.68889181 3.12835729 -3.97325438 3.11602855 C-8.20110126 2.98215615 -8.20110126 2.98215615 -11.6752246 5.03118062 C-12.36288517 5.76217383 -12.36288517 5.76217383 -13.06443787 6.50793457 C-13.72443787 6.50793457 -14.38443787 6.50793457 -15.06443787 6.50793457 C-15.06443787 5.84793457 -15.06443787 5.18793457 -15.06443787 4.50793457 C-10.16229004 0.29114542 -6.31699631 -0.06729063 0 0 Z " fill="#383DDB" transform="translate(98.06443786621094,79.4920654296875)"/>
<path d="M0 0 C0.66 0.66 1.32 1.32 2 2 C1.625 4.125 1.625 4.125 1 6 C0.34 6 -0.32 6 -1 6 C-1 5.34 -1 4.68 -1 4 C-1.99 4.495 -1.99 4.495 -3 5 C-4.19557549 9.87738252 -4.1408457 14.73509914 -4.12698364 19.72276306 C-4.12854363 20.58866375 -4.13010362 21.45456444 -4.13171089 22.34670454 C-4.13569213 25.24148908 -4.13254236 28.13622095 -4.12939453 31.03100586 C-4.13074985 33.10917695 -4.13253053 35.1873478 -4.13470459 37.26551819 C-4.13926358 42.90595487 -4.13749557 48.54637326 -4.1343255 54.18681026 C-4.13179367 60.09056952 -4.13414178 65.99432722 -4.13571167 71.89808655 C-4.13753109 81.81348959 -4.13513315 91.72888519 -4.13037109 101.64428711 C-4.12493041 113.10499829 -4.12669064 124.56569167 -4.1321975 136.02640241 C-4.13673687 145.86774184 -4.13737509 155.70907592 -4.13475883 165.55041605 C-4.13320041 171.42752884 -4.13299038 177.30463328 -4.13629532 183.18174553 C-4.13918592 188.70813898 -4.13717641 194.23450952 -4.13140106 199.7609005 C-4.13007979 201.78817456 -4.13045684 203.81545055 -4.13266373 205.84272385 C-4.13540012 208.61192629 -4.13196361 211.3810555 -4.12698364 214.1502533 C-4.12921436 214.95065173 -4.13144509 215.75105016 -4.13374341 216.57570308 C-4.14686892 225.64577523 -4.14686892 225.64577523 -1 234 C-3.45989704 232.56462097 -3.45989704 232.56462097 -6 230 C-6.76773934 227.00192676 -6.6789496 224.04733597 -6.64164734 220.96606445 C-6.65015286 220.04258618 -6.65865838 219.11910791 -6.66742164 218.16764545 C-6.68974957 215.06580518 -6.67623704 211.96515802 -6.6628418 208.86328125 C-6.67125182 206.64259987 -6.68177552 204.42192564 -6.69425964 202.20126343 C-6.72137205 196.16410815 -6.71659005 190.12736502 -6.70455909 184.09017563 C-6.69744115 179.05504928 -6.70591785 174.01999981 -6.71446449 168.98487949 C-6.73557852 156.43058366 -6.72638894 143.87653371 -6.70298818 131.32226765 C-6.68473543 121.09459512 -6.69564252 110.86728353 -6.72729492 100.63964844 C-6.76404312 88.76475465 -6.78043034 76.89009149 -6.76788265 65.01512051 C-6.76138337 58.72827999 -6.76345639 52.44174332 -6.78720665 46.15493774 C-6.80839527 40.24502217 -6.80056314 34.33585162 -6.77011299 28.42598343 C-6.76376382 26.25393829 -6.76769846 24.08183582 -6.78252411 21.909832 C-6.80109158 18.95033597 -6.78290648 15.99330651 -6.75517273 13.03393555 C-6.76923918 12.16896108 -6.78330563 11.30398661 -6.79779834 10.41280079 C-6.75423391 8.11499849 -6.67240493 6.19815829 -6 4 C-2.9528017 1.43537903 -2.9528017 1.43537903 0 0 Z " fill="#0407C3" transform="translate(87,83)"/>
<path d="M0 0 C28.4331509 -0.04671027 56.86629605 -0.08198409 85.29947758 -0.10362434 C98.50134119 -0.11393912 111.70318098 -0.12800336 124.9050293 -0.15087891 C136.41107414 -0.17080655 147.91710173 -0.18371497 159.42316335 -0.18817699 C165.5161248 -0.19078542 171.60903687 -0.19692065 177.7019825 -0.21146011 C183.43678343 -0.22503408 189.17151464 -0.22922298 194.90633011 -0.22621536 C197.01100608 -0.2267656 199.11568438 -0.23074412 201.22034645 -0.23841095 C204.09502703 -0.24836919 206.96944473 -0.24596557 209.84413147 -0.24050903 C210.67585926 -0.24633472 211.50758704 -0.2521604 212.3645187 -0.25816262 C217.28467514 -0.23294053 221.33072619 0.42914414 226 2 C226 2.66 226 3.32 226 4 C226.99 4.495 226.99 4.495 228 5 C227.34 5.66 226.68 6.32 226 7 C225.01 7 224.02 7 223 7 C223 6.01 223 5.02 223 4 C222.01 4 221.02 4 220 4 C220 3.34 220 2.68 220 2 C149.71 1.67 79.42 1.34 7 1 C7 1.66 7 2.32 7 3 C2.25 2.25 2.25 2.25 0 0 Z " fill="#0203E9" transform="translate(88,82)"/>
<path d="M0 0 C0.66 1.32 1.32 2.64 2 4 C-0.1385485 6.1385485 -1.13275314 6.42655063 -4 7 C-4 4 -4 4 -2 1.8125 C-1.34 1.214375 -0.68 0.61625 0 0 Z " fill="#DBDEF9" transform="translate(318,313)"/>
<path d="M0 0 C0.66 0.66 1.32 1.32 2 2 C1.625 4.125 1.625 4.125 1 6 C0.34 6 -0.32 6 -1 6 C-1 5.34 -1 4.68 -1 4 C-1.99 4.33 -2.98 4.66 -4 5 C-4 4.34 -4 3.68 -4 3 C-2 1.375 -2 1.375 0 0 Z " fill="#0406E0" transform="translate(87,83)"/>
<path d="M0 0 C0.99 0.99 1.98 1.98 3 3 C2.34 3.66 1.68 4.32 1 5 C-0.32 5 -1.64 5 -3 5 C-2.67 4.01 -2.34 3.02 -2 2 C-1.34 2 -0.68 2 0 2 C0 1.34 0 0.68 0 0 Z " fill="#0102ED" transform="translate(90,303)"/>
<path d="M0 0 C0.66 0.66 1.32 1.32 2 2 C1.360625 2.268125 0.72125 2.53625 0.0625 2.8125 C-2.33131686 3.88667752 -2.33131686 3.88667752 -3 7 C-3.33 5.68 -3.66 4.36 -4 3 C-2.68 2.01 -1.36 1.02 0 0 Z " fill="#DDE1FB" transform="translate(85,80)"/>
</svg>
